<?xml version="1.0" encoding="utf-8"?>
<!-- Generator: Adobe Illustrator 18.1.1, SVG Export Plug-In . SVG Version: 6.00 Build 0)  -->
<svg version="1.1" id="Layer_1" xmlns="http://www.w3.org/2000/svg" xmlns:xlink="http://www.w3.org/1999/xlink" x="0px" y="0px"
	 viewBox="0 0 97.3 97.2" enable-background="new 0 0 97.3 97.2" xml:space="preserve">
<polygon fill="#E22F81" points="26.6,10.5 29.7,3.5 36.8,6.2 41.4,0.3 47.6,4.6 53.7,0 58.6,5.8 65.6,2.8 68.9,9.6 76.4,8.4 
	77.9,15.9 85.5,16.6 85.1,24.2 92.2,26.8 90,34 96.2,38.3 92.3,44.8 97.3,50.5 91.8,55.8 95.2,62.6 88.6,66.3 90.3,73.7 82.9,75.7 
	82.7,83.3 75.1,83.4 72.9,90.7 65.6,88.9 61.7,95.4 55,91.9 49.6,97.2 44,92.1 37.4,95.9 33.3,89.6 26,91.7 23.5,84.5 16,84.7 
	15.4,77.1 8,75.4 9.3,68 2.5,64.5 5.7,57.6 0,52.5 4.7,46.6 0.5,40.3 6.6,35.8 4,28.6 11,25.7 10.4,18.2 17.9,17.1 19.1,9.6 "/>
<g>
	<path fill="#FFFFFF" d="M29.4,49.1c-0.3-0.5-0.4-1.1-0.2-1.5c0.2-0.5,0.5-0.9,1-1.2c0.5-0.3,1-0.4,1.5-0.3c0.5,0.1,0.9,0.4,1.2,1
		l9.1,15.7c0.3,0.5,0.4,1,0.3,1.5c-0.1,0.5-0.4,0.9-1,1.2c-0.3,0.2-0.7,0.3-1,0.3c-0.3,0-0.7,0-1.1-0.2l-14.7-6.4l5.9,10.3
		c0.3,0.5,0.4,1,0.2,1.5c-0.2,0.5-0.5,0.9-1,1.2c-0.5,0.3-1,0.4-1.5,0.3c-0.5-0.1-0.9-0.4-1.2-1L18,56c-0.3-0.5-0.4-1-0.4-1.6
		c0-0.5,0.4-1,1-1.3c0.3-0.2,0.6-0.3,0.9-0.3c0.3,0,0.7,0,1.1,0.2l15,6.9L29.4,49.1z"/>
	<path fill="#FFFFFF" d="M45.9,54.5c0.8,1,1.7,1.6,2.7,1.8c1,0.2,2,0,3-0.6c0.4-0.2,0.7-0.5,1-0.8c0.3-0.3,0.5-0.6,0.7-0.9
		c0.2-0.3,0.4-0.6,0.5-0.8c0.1-0.3,0.2-0.5,0.3-0.6c0.2-0.3,0.5-0.6,0.6-0.7c0.4-0.2,0.9-0.3,1.3-0.1c0.5,0.1,0.8,0.4,1,0.8
		c0.2,0.3,0.2,0.6,0.2,0.9c0,0.3-0.1,0.6-0.2,0.9c-0.3,0.8-0.8,1.5-1.4,2.3c-0.7,0.8-1.6,1.6-2.7,2.2c-1,0.6-2.1,0.9-3.1,1.1
		c-1.1,0.1-2.1,0-3.1-0.2c-1-0.3-1.9-0.8-2.8-1.5c-0.9-0.7-1.6-1.6-2.2-2.6c-0.6-1-1-2.1-1.1-3.2c-0.2-1.1-0.1-2.2,0.1-3.2
		c0.2-1,0.7-2,1.3-2.9c0.6-0.9,1.4-1.6,2.4-2.2c1-0.6,1.9-0.9,2.9-1c1-0.1,1.9,0,2.8,0.2c0.9,0.2,1.7,0.6,2.4,1.2
		c0.7,0.6,1.3,1.2,1.8,2c0.3,0.6,0.5,1.1,0.5,1.6c0,0.5-0.3,0.9-0.9,1.3L45.9,54.5z M46.5,47.4c-0.9,0.5-1.5,1.2-1.8,2.1
		c-0.3,0.9-0.3,1.9,0.1,2.9l6.5-3.8c-0.2-0.4-0.4-0.7-0.8-1c-0.3-0.3-0.7-0.5-1.2-0.6c-0.4-0.1-0.9-0.2-1.4-0.1
		C47.4,46.9,47,47.1,46.5,47.4z"/>
	<path fill="#FFFFFF" d="M69.5,32c-0.1-0.5-0.1-0.9,0-1.2c0.1-0.4,0.4-0.6,0.8-0.9c0.6-0.3,1.1-0.4,1.6-0.3c0.5,0.1,0.9,0.5,1.2,1
		c0.1,0.1,0.1,0.2,0.2,0.3c0.1,0.1,0.1,0.4,0.2,0.7l2,12.5c0.1,0.5,0,0.9-0.1,1.3c-0.2,0.4-0.4,0.7-0.8,0.9
		c-0.4,0.2-0.8,0.3-1.2,0.3c-0.4,0-0.8-0.2-1.3-0.6l-5.9-5.3l1.7,7.7c0.1,0.6,0.1,1-0.2,1.4c-0.2,0.4-0.5,0.7-0.8,0.8
		c-0.4,0.2-0.8,0.3-1.2,0.3c-0.4,0-0.8-0.2-1.2-0.6l-9.7-8c-0.4-0.3-0.6-0.5-0.7-0.8c-0.4-0.6-0.4-1.2-0.2-1.7
		c0.3-0.5,0.6-0.9,1.1-1.1c0.8-0.4,1.5-0.4,2.1,0.2l7,6.3l-1.6-7.4c-0.1-0.6-0.1-1,0.1-1.4c0.2-0.4,0.5-0.7,0.8-0.8
		c0.3-0.2,0.7-0.3,1.1-0.3c0.4,0,0.9,0.2,1.3,0.6l5.6,5.1L69.5,32z"/>
</g>
</svg>
