<?xml version="1.0" encoding="utf-8"?>
<!-- Generator: Adobe Illustrator 18.1.1, SVG Export Plug-In . SVG Version: 6.00 Build 0)  -->
<svg version="1.1" id="Layer_1" xmlns="http://www.w3.org/2000/svg" xmlns:xlink="http://www.w3.org/1999/xlink" x="0px" y="0px"
	 viewBox="0 0 97.3 97.2" enable-background="new 0 0 97.3 97.2" xml:space="preserve">
<polygon fill="#E22F81" points="26.6,10.5 29.7,3.5 36.8,6.2 41.4,0.3 47.6,4.6 53.7,0 58.6,5.8 65.6,2.8 68.9,9.6 76.4,8.4 
	77.9,15.9 85.5,16.6 85.1,24.2 92.2,26.8 90,34 96.2,38.3 92.3,44.8 97.3,50.5 91.8,55.8 95.2,62.6 88.6,66.3 90.3,73.7 82.9,75.7 
	82.7,83.3 75.1,83.4 72.9,90.7 65.6,88.9 61.7,95.4 55,91.9 49.6,97.2 44,92.1 37.4,95.9 33.3,89.6 26,91.7 23.5,84.5 16,84.7 
	15.4,77.1 8,75.4 9.3,68 2.5,64.5 5.7,57.6 0,52.5 4.7,46.6 0.5,40.3 6.6,35.8 4,28.6 11,25.7 10.4,18.2 17.9,17.1 19.1,9.6 "/>
<g>
	<path fill="#FFFFFF" d="M19.5,55.3c0.7-0.4,1.4-0.7,2-0.8c0.7-0.1,1.3-0.1,1.9,0c0.6,0.1,1.1,0.4,1.6,0.8c0.5,0.4,0.9,0.9,1.3,1.5
		c0.4,0.6,0.6,1.3,0.7,1.9c0.1,0.6,0,1.2-0.2,1.8c-0.2,0.6-0.5,1.1-1,1.6c-0.4,0.5-1,1-1.7,1.4l-2.1,1.2l1.5,2.6
		c0.2,0.3,0.2,0.6,0.2,1c-0.1,0.3-0.3,0.6-0.6,0.8c-0.3,0.2-0.6,0.2-1,0.2c-0.3-0.1-0.6-0.3-0.8-0.6l-5.6-9.8
		c-0.2-0.3-0.2-0.6-0.2-1c0.1-0.3,0.3-0.6,0.6-0.8L19.5,55.3z M23.1,61.7c0.8-0.4,1.2-1,1.4-1.6c0.2-0.6,0-1.3-0.4-1.9
		c-0.4-0.7-0.9-1.2-1.6-1.3s-1.3,0-2.1,0.4l-2.1,1.2l2.6,4.4L23.1,61.7z"/>
	<path fill="#FFFFFF" d="M26.5,52.7c-0.2-0.3-0.2-0.6-0.1-0.9c0.1-0.3,0.3-0.6,0.6-0.7s0.6-0.2,0.9-0.1c0.3,0.1,0.6,0.3,0.7,0.6
		l4.7,8.2c0.1,0.2,0.3,0.4,0.4,0.5c0.2,0.1,0.3,0.1,0.5,0c0.2-0.1,0.4-0.1,0.6,0c0.2,0.1,0.3,0.3,0.4,0.5c0.2,0.3,0.2,0.7,0.2,1
		c-0.1,0.3-0.3,0.6-0.7,0.8c-0.6,0.3-1.2,0.4-1.7,0.2s-1.1-0.8-1.7-1.7L26.5,52.7z"/>
	<path fill="#FFFFFF" d="M44.2,53.4c0.3,0.5,0.6,0.7,0.9,0.5c0.2-0.1,0.4-0.1,0.5,0c0.2,0.1,0.3,0.3,0.5,0.5
		c0.4,0.7,0.2,1.3-0.7,1.9c-0.6,0.3-1.1,0.4-1.5,0.3c-0.4-0.2-0.8-0.4-1.1-0.8l-0.1-0.2c0.1,0.8,0,1.5-0.4,2.1
		c-0.3,0.6-0.8,1.1-1.5,1.5c-0.5,0.3-1.1,0.5-1.7,0.5c-0.6,0.1-1.2,0-1.7-0.2s-1.1-0.5-1.6-1c-0.5-0.4-1-1-1.4-1.7
		c-0.4-0.7-0.7-1.4-0.8-2.1c-0.1-0.7-0.1-1.3,0-2c0.1-0.6,0.4-1.2,0.7-1.7c0.4-0.5,0.8-0.9,1.3-1.2c0.7-0.4,1.4-0.6,2-0.5
		c0.6,0.1,1.2,0.3,1.8,0.7L39,49.4c-0.2-0.3-0.2-0.5-0.1-0.8c0.1-0.3,0.3-0.5,0.6-0.7c0.3-0.2,0.6-0.3,0.9-0.2
		c0.3,0.1,0.5,0.2,0.7,0.5L44.2,53.4z M40.3,56.9c0.3-0.2,0.6-0.4,0.8-0.7c0.2-0.3,0.4-0.6,0.4-0.9c0.1-0.3,0.1-0.7,0-1.1
		c-0.1-0.4-0.2-0.8-0.5-1.2c-0.5-0.8-1.1-1.3-1.8-1.6c-0.7-0.2-1.4-0.2-2.1,0.2c-0.7,0.4-1.1,1-1.2,1.7s0.1,1.5,0.5,2.3
		c0.2,0.4,0.5,0.7,0.8,1c0.3,0.3,0.6,0.4,1,0.5c0.3,0.1,0.7,0.1,1,0.1C39.6,57.2,40,57.1,40.3,56.9z"/>
	<path fill="#FFFFFF" d="M50.5,53.4l-7.1-5.5c-0.1-0.1-0.2-0.2-0.3-0.3c-0.1-0.1-0.1-0.2-0.2-0.3c-0.2-0.3-0.2-0.6-0.1-1
		c0.1-0.3,0.3-0.6,0.6-0.8c0.2-0.1,0.5-0.2,0.7-0.2c0.2,0,0.4,0.1,0.6,0.3l5.2,4.4l-1-6.8c0-0.2,0-0.5,0-0.7
		c0.1-0.2,0.2-0.4,0.5-0.5c0.3-0.2,0.6-0.2,0.9-0.2c0.3,0.1,0.5,0.2,0.7,0.5c0.1,0.1,0.1,0.3,0.2,0.4c0,0.1,0.1,0.3,0.1,0.4l1.2,9.3
		c0.1,0.7,0.1,1.3,0.1,1.8c0,0.5-0.1,1-0.3,1.4c-0.2,0.4-0.4,0.7-0.6,1c-0.3,0.3-0.6,0.5-1,0.8c-0.4,0.3-0.8,0.4-1.1,0.3
		c-0.3,0-0.5-0.2-0.7-0.5c-0.2-0.3-0.2-0.6-0.2-0.9c0.1-0.3,0.3-0.5,0.6-0.7c0.5-0.3,0.9-0.6,1-1c0.2-0.3,0.2-0.7,0.1-1.2L50.5,53.4
		z"/>
	<path fill="#FFFFFF" d="M51,38.5c-0.2-0.3-0.2-0.6-0.1-0.9c0.1-0.3,0.3-0.6,0.6-0.7c0.3-0.2,0.6-0.2,0.9-0.1
		c0.3,0.1,0.6,0.3,0.7,0.6l4.7,8.2c0.1,0.2,0.3,0.4,0.4,0.5c0.2,0.1,0.3,0.1,0.5,0c0.2-0.1,0.4-0.1,0.6,0c0.2,0.1,0.3,0.3,0.4,0.5
		c0.2,0.3,0.2,0.7,0.2,1c-0.1,0.3-0.3,0.6-0.7,0.8c-0.6,0.3-1.2,0.4-1.7,0.2s-1.1-0.8-1.7-1.7L51,38.5z"/>
	<path fill="#FFFFFF" d="M56,34.2c0.3-0.2,0.7-0.3,1-0.2c0.3,0.1,0.6,0.3,0.8,0.7c0.2,0.4,0.3,0.7,0.2,1c-0.1,0.3-0.3,0.5-0.7,0.7
		c-0.3,0.2-0.6,0.2-1,0.2c-0.3-0.1-0.6-0.3-0.8-0.6c-0.2-0.4-0.3-0.7-0.2-1C55.5,34.6,55.7,34.4,56,34.2z M57.4,39
		c-0.2-0.3-0.2-0.6-0.1-0.9c0.1-0.3,0.3-0.6,0.6-0.7c0.3-0.2,0.6-0.2,0.9-0.1c0.3,0.1,0.6,0.3,0.7,0.6l2.9,5
		c0.1,0.2,0.3,0.4,0.4,0.5c0.2,0.1,0.3,0.1,0.5,0c0.2-0.1,0.4-0.1,0.6,0c0.2,0.1,0.3,0.3,0.4,0.5c0.2,0.3,0.2,0.7,0.2,1
		c-0.1,0.3-0.3,0.6-0.7,0.8c-0.6,0.3-1.2,0.4-1.7,0.2c-0.6-0.2-1.1-0.8-1.7-1.7L57.4,39z"/>
	<path fill="#FFFFFF" d="M62.5,37.9c-0.2-0.4-0.3-0.8-0.4-1.2c0-0.4,0-0.8,0.2-1.2c0.2-0.4,0.4-0.8,0.7-1.1c0.3-0.4,0.7-0.7,1.2-1
		c0.7-0.4,1.3-0.6,1.8-0.7c0.5-0.1,1,0,1.4,0.1c0.2,0.1,0.4,0.1,0.5,0.2c0.1,0.1,0.2,0.2,0.3,0.3c0.1,0.2,0.2,0.4,0.1,0.7
		c0,0.3-0.2,0.5-0.4,0.7c-0.1,0.1-0.3,0.1-0.4,0.1c-0.2,0-0.3,0-0.5,0c-0.2,0-0.5,0-0.8,0c-0.3,0-0.7,0.1-1,0.3
		c-0.3,0.2-0.5,0.4-0.7,0.6c-0.2,0.2-0.2,0.5,0,0.8c0.1,0.2,0.3,0.3,0.6,0.3c0.3,0,0.6,0,1.1-0.1c0.4-0.1,0.8-0.1,1.3-0.2
		c0.5-0.1,0.9-0.1,1.4-0.1c0.5,0,0.9,0.1,1.3,0.3c0.4,0.2,0.7,0.5,1,1c0.2,0.4,0.4,0.8,0.4,1.3c0,0.4,0,0.9-0.2,1.3
		c-0.2,0.4-0.4,0.8-0.7,1.2c-0.3,0.4-0.8,0.7-1.3,1c-0.7,0.4-1.4,0.7-2,0.8c-0.6,0.1-1.2,0.1-1.7-0.1c-0.2-0.1-0.4-0.1-0.5-0.2
		c-0.1-0.1-0.2-0.2-0.3-0.3c-0.1-0.2-0.2-0.5-0.1-0.8c0-0.3,0.2-0.5,0.4-0.7c0.2-0.1,0.3-0.1,0.5-0.2c0.2,0,0.3,0,0.4,0
		c0.3,0.1,0.7,0.1,1,0c0.4,0,0.7-0.1,1.1-0.4c0.4-0.2,0.7-0.5,0.8-0.7c0.2-0.3,0.2-0.5,0-0.8c-0.1-0.2-0.4-0.4-0.7-0.4
		c-0.3,0-0.7,0-1.1,0.1c-0.4,0.1-0.8,0.2-1.3,0.2c-0.5,0.1-0.9,0.1-1.4,0.1c-0.5,0-0.9-0.1-1.3-0.3C63.1,38.8,62.8,38.4,62.5,37.9z"
		/>
	<path fill="#FFFFFF" d="M75.8,34.8c0.5,0.8,1,1.1,1.6,0.7c0.3-0.2,0.5-0.3,0.6-0.5c0.1-0.2,0.2-0.3,0.4-0.4c0.2-0.1,0.5-0.2,0.7,0
		c0.2,0.1,0.4,0.3,0.5,0.4c0.2,0.4,0.3,0.8,0.1,1.2c-0.1,0.3-0.3,0.6-0.6,0.8c-0.2,0.2-0.6,0.4-0.9,0.7c-0.5,0.3-1,0.5-1.4,0.5
		c-0.4,0-0.8,0-1.2-0.2c-0.4-0.2-0.7-0.4-1-0.7c-0.3-0.3-0.6-0.7-0.8-1l-2.4-4.1l-0.5,0.3c-0.3,0.2-0.6,0.2-0.8,0.1
		c-0.3-0.1-0.5-0.2-0.7-0.5c-0.2-0.3-0.2-0.6-0.1-0.9c0.1-0.3,0.3-0.5,0.5-0.6l0.5-0.3l-0.7-1.2c-0.2-0.3-0.2-0.6-0.1-0.9
		c0.1-0.3,0.3-0.6,0.6-0.7c0.3-0.2,0.6-0.2,0.9-0.1c0.3,0.1,0.6,0.3,0.7,0.6l0.7,1.2l1.5-0.8c0.3-0.2,0.5-0.2,0.8-0.1
		c0.3,0.1,0.5,0.2,0.7,0.5c0.2,0.3,0.2,0.6,0.1,0.8c-0.1,0.3-0.3,0.5-0.5,0.6l-1.5,0.8L75.8,34.8z"/>
</g>
</svg>
