<?xml version="1.0" encoding="utf-8"?>
<!-- Generator: Adobe Illustrator 18.1.1, SVG Export Plug-In . SVG Version: 6.00 Build 0)  -->
<svg version="1.1" id="Layer_1" xmlns="http://www.w3.org/2000/svg" xmlns:xlink="http://www.w3.org/1999/xlink" x="0px" y="0px"
	 viewBox="0 0 97.3 97.2" enable-background="new 0 0 97.3 97.2" xml:space="preserve">
<polygon fill="#E22F81" points="26.6,10.5 29.7,3.5 36.8,6.2 41.4,0.3 47.6,4.6 53.7,0 58.6,5.8 65.6,2.8 68.9,9.6 76.4,8.4 
	77.9,15.9 85.5,16.6 85.1,24.2 92.2,26.8 90,34 96.2,38.3 92.3,44.8 97.3,50.5 91.8,55.8 95.2,62.6 88.6,66.3 90.3,73.7 82.9,75.7 
	82.7,83.3 75.1,83.4 72.9,90.7 65.6,88.9 61.7,95.4 55,91.9 49.6,97.2 44,92.1 37.4,95.9 33.3,89.6 26,91.7 23.5,84.5 16,84.7 
	15.4,77.1 8,75.4 9.3,68 2.5,64.5 5.7,57.6 0,52.5 4.7,46.6 0.5,40.3 6.6,35.8 4,28.6 11,25.7 10.4,18.2 17.9,17.1 19.1,9.6 "/>
<g>
	<path fill="#FFFFFF" d="M26.6,58.6c0.5,0.8,0.7,1.6,0.6,2.5c0,0.8-0.4,1.6-0.9,2.4l3.3,1.3c0.4,0.1,0.6,0.3,0.8,0.4
		c0.2,0.1,0.3,0.3,0.4,0.5c0.1,0.2,0.2,0.5,0.1,0.8c-0.1,0.3-0.3,0.6-0.6,0.8c-0.2,0.1-0.5,0.2-0.7,0.2c-0.2,0-0.5-0.1-0.8-0.2
		l-4.6-2l-1.6,0.9l1.8,3.1c0.2,0.3,0.2,0.6,0.2,1c-0.1,0.3-0.3,0.6-0.6,0.8c-0.3,0.2-0.6,0.2-1,0.2c-0.3-0.1-0.6-0.3-0.8-0.6
		l-5.6-9.8c-0.2-0.3-0.2-0.6-0.2-1c0.1-0.3,0.3-0.6,0.6-0.8l3.2-1.8c0.7-0.4,1.3-0.6,1.9-0.7c0.6-0.1,1.2-0.1,1.8,0s1.1,0.4,1.6,0.7
		C25.9,57.5,26.3,58,26.6,58.6z M23.5,63c0.6-0.4,1-0.8,1.2-1.4c0.2-0.5,0.1-1.1-0.3-1.8c-0.4-0.6-0.8-1-1.4-1.1
		c-0.6-0.1-1.2,0-1.8,0.4l-2,1.2l2.3,3.9L23.5,63z"/>
	<path fill="#FFFFFF" d="M32.5,60.8c0.5,0.6,1.1,1,1.7,1.1c0.6,0.1,1.3,0,1.9-0.4c0.2-0.1,0.5-0.3,0.6-0.5c0.2-0.2,0.3-0.4,0.5-0.5
		c0.1-0.2,0.2-0.4,0.3-0.5c0.1-0.2,0.1-0.3,0.2-0.4c0.2-0.2,0.3-0.3,0.4-0.4c0.3-0.2,0.5-0.2,0.8-0.1c0.3,0.1,0.5,0.3,0.6,0.5
		c0.1,0.2,0.1,0.4,0.1,0.6c0,0.2,0,0.4-0.1,0.5c-0.2,0.5-0.5,1-0.9,1.5c-0.4,0.5-1,1-1.7,1.4c-0.6,0.4-1.3,0.6-1.9,0.7
		c-0.7,0.1-1.3,0-1.9-0.2c-0.6-0.2-1.2-0.5-1.7-0.9c-0.5-0.4-1-1-1.4-1.6c-0.4-0.6-0.6-1.3-0.7-2c-0.1-0.7-0.1-1.4,0.1-2
		c0.1-0.6,0.4-1.2,0.8-1.8c0.4-0.5,0.9-1,1.5-1.4c0.6-0.3,1.2-0.6,1.8-0.6c0.6-0.1,1.2,0,1.7,0.1c0.5,0.2,1.1,0.4,1.5,0.8
		c0.5,0.4,0.8,0.8,1.1,1.3c0.2,0.4,0.3,0.7,0.3,1s-0.2,0.6-0.6,0.8L32.5,60.8z M32.8,56.3c-0.6,0.3-0.9,0.8-1.1,1.3
		c-0.2,0.6-0.2,1.2,0.1,1.8l4.1-2.4c-0.1-0.2-0.3-0.4-0.5-0.6c-0.2-0.2-0.5-0.3-0.7-0.4C34.3,56,34,56,33.7,56
		C33.4,56.1,33.1,56.2,32.8,56.3z"/>
	<path fill="#FFFFFF" d="M38.2,51.9c-0.8-1.3-1-2.5-0.7-3.6c0.3-1.1,1-2,2.1-2.6c0.2-0.1,0.4-0.2,0.6-0.3s0.3-0.1,0.4-0.2
		c0.3-0.1,0.6-0.1,0.8,0.1c0.2,0.1,0.4,0.3,0.5,0.5c0.2,0.3,0.2,0.6,0.1,0.9c-0.1,0.3-0.3,0.5-0.5,0.6c-0.1,0.1-0.3,0.1-0.4,0.2
		c-0.1,0.1-0.3,0.1-0.5,0.3c-0.5,0.3-0.8,0.6-0.9,1c-0.1,0.4,0,0.8,0.3,1.4l1.5-0.8c0.3-0.2,0.6-0.2,0.8-0.1
		c0.3,0.1,0.5,0.2,0.7,0.5c0.2,0.3,0.2,0.6,0.1,0.9c-0.1,0.3-0.3,0.5-0.5,0.7l-1.5,0.9l3.3,5.7c0.2,0.3,0.2,0.6,0.1,0.9
		c-0.1,0.3-0.3,0.5-0.6,0.7c-0.3,0.2-0.6,0.2-0.9,0.2c-0.3-0.1-0.5-0.3-0.7-0.6L38.2,51.9z"/>
	<path fill="#FFFFFF" d="M44.6,48.5c-0.2-0.3-0.2-0.5-0.1-0.8c0.1-0.3,0.3-0.5,0.6-0.7c0.7-0.4,1.2-0.3,1.6,0.4l0.3,0.6
		c0-0.6,0.1-1.2,0.3-1.8c0.2-0.6,0.7-1,1.3-1.4c0.4-0.2,0.7-0.3,1-0.2c0.3,0.1,0.5,0.3,0.6,0.5c0.2,0.3,0.2,0.6,0.2,0.9
		c0,0.3-0.3,0.5-0.6,0.7c-0.3,0.2-0.6,0.4-0.8,0.7c-0.2,0.3-0.4,0.6-0.5,1c-0.1,0.4-0.1,0.7-0.1,1.2c0.1,0.4,0.2,0.9,0.5,1.3
		l1.9,3.3c0.2,0.3,0.2,0.6,0.1,0.9c-0.1,0.3-0.3,0.5-0.6,0.7c-0.3,0.2-0.6,0.2-0.9,0.2c-0.3-0.1-0.6-0.3-0.7-0.6L44.6,48.5z"/>
	<path fill="#FFFFFF" d="M55,47.7c0.5,0.6,1.1,1,1.7,1.1s1.3,0,1.9-0.4c0.2-0.1,0.5-0.3,0.6-0.5c0.2-0.2,0.3-0.4,0.5-0.5
		c0.1-0.2,0.2-0.4,0.3-0.5c0.1-0.2,0.1-0.3,0.2-0.4c0.2-0.2,0.3-0.3,0.4-0.4c0.3-0.2,0.5-0.2,0.8-0.1c0.3,0.1,0.5,0.3,0.6,0.5
		c0.1,0.2,0.1,0.4,0.1,0.6c0,0.2,0,0.4-0.1,0.5c-0.2,0.5-0.5,1-0.9,1.5c-0.4,0.5-1,1-1.7,1.4c-0.6,0.4-1.3,0.6-1.9,0.7
		c-0.7,0.1-1.3,0-1.9-0.2c-0.6-0.2-1.2-0.5-1.7-0.9c-0.5-0.4-1-1-1.4-1.6c-0.4-0.6-0.6-1.3-0.7-2c-0.1-0.7-0.1-1.4,0.1-2
		c0.1-0.6,0.4-1.2,0.8-1.8c0.4-0.5,0.9-1,1.5-1.4c0.6-0.3,1.2-0.6,1.8-0.6c0.6-0.1,1.2,0,1.7,0.1c0.5,0.2,1.1,0.4,1.5,0.8
		c0.5,0.4,0.8,0.8,1.1,1.3c0.2,0.4,0.3,0.7,0.3,1c0,0.3-0.2,0.6-0.6,0.8L55,47.7z M55.3,43.3c-0.6,0.3-0.9,0.8-1.1,1.3
		c-0.2,0.6-0.2,1.2,0.1,1.8l4.1-2.4c-0.1-0.2-0.3-0.4-0.5-0.6c-0.2-0.2-0.5-0.3-0.7-0.4C56.9,43,56.6,43,56.3,43
		C56,43,55.7,43.1,55.3,43.3z"/>
	<path fill="#FFFFFF" d="M61.4,40.7C61.2,40.4,61,40,61,39.6c0-0.4,0-0.8,0.2-1.2c0.2-0.4,0.4-0.8,0.7-1.1c0.3-0.4,0.7-0.7,1.2-1
		c0.7-0.4,1.3-0.6,1.8-0.7c0.5-0.1,1,0,1.4,0.1c0.2,0.1,0.4,0.1,0.5,0.2c0.1,0.1,0.2,0.2,0.3,0.3c0.1,0.2,0.2,0.4,0.1,0.7
		s-0.2,0.5-0.4,0.7c-0.1,0.1-0.3,0.1-0.4,0.1c-0.2,0-0.3,0-0.5,0c-0.2,0-0.5,0-0.8,0c-0.3,0-0.7,0.1-1,0.3c-0.3,0.2-0.5,0.4-0.7,0.6
		c-0.2,0.2-0.2,0.5,0,0.8c0.1,0.2,0.3,0.3,0.6,0.3s0.6,0,1.1-0.1c0.4-0.1,0.8-0.1,1.3-0.2c0.5-0.1,0.9-0.1,1.4-0.1
		c0.5,0,0.9,0.1,1.3,0.3s0.7,0.5,1,1c0.2,0.4,0.4,0.8,0.4,1.3c0,0.4,0,0.9-0.2,1.3c-0.2,0.4-0.4,0.8-0.7,1.2c-0.3,0.4-0.8,0.7-1.3,1
		c-0.7,0.4-1.4,0.7-2,0.8c-0.6,0.1-1.2,0.1-1.7-0.1c-0.2-0.1-0.4-0.1-0.5-0.2c-0.1-0.1-0.2-0.2-0.3-0.3c-0.1-0.2-0.2-0.5-0.1-0.8
		c0-0.3,0.2-0.5,0.4-0.7c0.2-0.1,0.3-0.1,0.5-0.2c0.2,0,0.3,0,0.4,0c0.3,0.1,0.7,0.1,1,0c0.4,0,0.7-0.1,1.1-0.4
		c0.4-0.2,0.7-0.5,0.8-0.7c0.2-0.3,0.2-0.5,0-0.8c-0.1-0.2-0.4-0.4-0.7-0.4c-0.3,0-0.7,0-1.1,0.1c-0.4,0.1-0.8,0.2-1.3,0.2
		c-0.5,0.1-0.9,0.1-1.4,0.1s-0.9-0.1-1.3-0.3C62,41.6,61.7,41.2,61.4,40.7z"/>
	<path fill="#FFFFFF" d="M71.5,33.6c0-0.6,0.1-1.2,0.3-1.7c0.3-0.5,0.7-1,1.3-1.3c1-0.6,2-0.7,2.9-0.4c0.9,0.3,1.7,1,2.3,2.1
		l2.6,4.4c0.2,0.3,0.2,0.6,0.1,0.9c-0.1,0.3-0.3,0.5-0.6,0.7c-0.3,0.2-0.6,0.2-0.9,0.1c-0.3-0.1-0.6-0.3-0.7-0.6l-2.1-3.7
		c-0.4-0.8-0.9-1.3-1.5-1.5c-0.5-0.2-1.1-0.2-1.7,0.2c-0.6,0.3-0.9,0.8-1,1.4c-0.1,0.6,0.1,1.3,0.6,2l2.1,3.6
		c0.2,0.3,0.2,0.6,0.1,0.9c-0.1,0.3-0.3,0.5-0.6,0.7c-0.3,0.2-0.6,0.2-0.9,0.1c-0.3-0.1-0.6-0.3-0.7-0.6l-5.7-9.9
		c-0.2-0.3-0.2-0.6-0.2-0.9c0.1-0.3,0.3-0.6,0.6-0.7c0.3-0.2,0.7-0.2,0.9-0.2c0.3,0.1,0.5,0.3,0.7,0.6L71.5,33.6z"/>
</g>
</svg>
